<?xml version="1.0" encoding="UTF-8" standalone="no"?>
<!-- Created with Inkscape (http://www.inkscape.org/) -->

<svg
   width="512"
   height="512"
   viewBox="0 0 135.46666 135.46667"
   version="1.1"
   id="svg5"
   inkscape:version="1.4.2 (ebf0e940d0, 2025-05-08)"
   sodipodi:docname="icono.svg"
   xml:space="preserve"
   inkscape:export-filename="icono_192.png"
   inkscape:export-xdpi="36"
   inkscape:export-ydpi="36"
   xmlns:inkscape="http://www.inkscape.org/namespaces/inkscape"
   xmlns:sodipodi="http://sodipodi.sourceforge.net/DTD/sodipodi-0.dtd"
   xmlns:xlink="http://www.w3.org/1999/xlink"
   xmlns="http://www.w3.org/2000/svg"
   xmlns:svg="http://www.w3.org/2000/svg"><sodipodi:namedview
     id="namedview7"
     pagecolor="#ffffff"
     bordercolor="#000000"
     borderopacity="0.25"
     inkscape:showpageshadow="2"
     inkscape:pageopacity="0.0"
     inkscape:pagecheckerboard="0"
     inkscape:deskcolor="#d1d1d1"
     inkscape:document-units="mm"
     showgrid="false"
     inkscape:zoom="0.70710678"
     inkscape:cx="352.13918"
     inkscape:cy="575.58492"
     inkscape:window-width="1920"
     inkscape:window-height="1056"
     inkscape:window-x="0"
     inkscape:window-y="0"
     inkscape:window-maximized="1"
     inkscape:current-layer="layer1"
     inkscape:export-bgcolor="#ffffffff" /><defs
     id="defs2"><linearGradient
       id="linearGradient3"
       inkscape:collect="always"><stop
         style="stop-color:#ffeddf;stop-opacity:1"
         offset="0"
         id="stop3" /><stop
         style="stop-color:#d6d4ad;stop-opacity:1"
         offset="0.25177631"
         id="stop5" /><stop
         style="stop-color:#f7fbf2;stop-opacity:1"
         offset="1"
         id="stop4" /></linearGradient><linearGradient
       inkscape:collect="always"
       id="linearGradient21138"><stop
         style="stop-color:#b7a600;stop-opacity:1;"
         offset="0"
         id="stop21134" /><stop
         style="stop-color:#d0b500;stop-opacity:1;"
         offset="0.36863264"
         id="stop21142" /><stop
         style="stop-color:#aa9f00;stop-opacity:1;"
         offset="1"
         id="stop21136" /></linearGradient><linearGradient
       inkscape:collect="always"
       id="linearGradient14032"><stop
         style="stop-color:#ffffff;stop-opacity:1;"
         offset="0"
         id="stop14028" /><stop
         style="stop-color:#ffffff;stop-opacity:0;"
         offset="0.1875499"
         id="stop14040" /><stop
         style="stop-color:#ffffff;stop-opacity:0.37045673;"
         offset="0.33138737"
         id="stop14036" /><stop
         style="stop-color:#ffffff;stop-opacity:0;"
         offset="0.50800264"
         id="stop14038" /><stop
         style="stop-color:#ffffff;stop-opacity:0;"
         offset="1"
         id="stop14030" /></linearGradient><linearGradient
       inkscape:collect="always"
       id="linearGradient10307"><stop
         style="stop-color:#705216;stop-opacity:1;"
         offset="0"
         id="stop10303" /><stop
         style="stop-color:#342a00;stop-opacity:1;"
         offset="1"
         id="stop10305" /></linearGradient><linearGradient
       inkscape:collect="always"
       id="linearGradient9755"><stop
         style="stop-color:#caca00;stop-opacity:1"
         offset="0"
         id="stop9751" /><stop
         style="stop-color:#a78504;stop-opacity:1;"
         offset="0.49105123"
         id="stop9813" /><stop
         style="stop-color:#dbb31a;stop-opacity:1;"
         offset="0.99989998"
         id="stop9811" /><stop
         style="stop-color:#ffd42a;stop-opacity:1;"
         offset="1"
         id="stop9753" /></linearGradient><linearGradient
       inkscape:collect="always"
       xlink:href="#linearGradient9755"
       id="linearGradient9757"
       x1="130.43863"
       y1="32.287525"
       x2="136.64551"
       y2="21.536907"
       gradientUnits="userSpaceOnUse"
       gradientTransform="matrix(1.6161751,0,0,1.6161751,-84.872378,-20.214861)" /><linearGradient
       inkscape:collect="always"
       xlink:href="#linearGradient10307"
       id="linearGradient10317"
       gradientUnits="userSpaceOnUse"
       x1="54.246784"
       y1="27.237787"
       x2="156.54396"
       y2="27.237787"
       gradientTransform="matrix(1.3340652,0,0,1.3340652,-67.965843,-52.516203)" /><filter
       inkscape:label="Air Spray"
       inkscape:menu="Scatter"
       inkscape:menu-tooltip="Convert to small scattered particles with some thickness"
       width="1.1347611"
       height="1.1347611"
       y="-0.067380572"
       x="-0.067380572"
       style="color-interpolation-filters:sRGB"
       id="filter14020"><feGaussianBlur
         stdDeviation="0.01"
         result="result1"
         id="feGaussianBlur14008" /><feBlend
         in2="result1"
         result="fbSourceGraphic"
         mode="multiply"
         id="feBlend14010" /><feTurbulence
         baseFrequency="1.8000000000000007"
         type="fractalNoise"
         seed="0"
         numOctaves="3"
         result="result3"
         id="feTurbulence14012" /><feDisplacementMap
         in="fbSourceGraphic"
         xChannelSelector="R"
         yChannelSelector="G"
         scale="50"
         result="result2"
         in2="result3"
         id="feDisplacementMap14014" /><feMorphology
         radius="1"
         operator="dilate"
         result="result4"
         id="feMorphology14016" /><feBlend
         mode="screen"
         in2="result2"
         id="feBlend14018" /></filter><clipPath
       clipPathUnits="userSpaceOnUse"
       id="clipPath14022"><circle
         style="opacity:1;fill:none;fill-opacity:1;stroke:#ff0000;stroke-width:0.500002;stroke-linecap:butt;stroke-linejoin:miter;stroke-miterlimit:4;stroke-dasharray:none;stroke-dashoffset:0;stroke-opacity:1;paint-order:fill markers stroke;stop-color:#000000;stop-opacity:1"
         id="circle14024"
         cx="132.15973"
         cy="21.833143"
         r="7.3840294" /></clipPath><linearGradient
       inkscape:collect="always"
       xlink:href="#linearGradient14032"
       id="linearGradient14034"
       x1="125.77783"
       y1="30.154066"
       x2="140.3728"
       y2="8.3547182"
       gradientUnits="userSpaceOnUse" /><linearGradient
       inkscape:collect="always"
       xlink:href="#linearGradient21138"
       id="linearGradient21140"
       x1="127.82026"
       y1="26.581415"
       x2="135.86021"
       y2="16.697926"
       gradientUnits="userSpaceOnUse" /><linearGradient
       inkscape:collect="always"
       xlink:href="#linearGradient21138"
       id="linearGradient36"
       gradientUnits="userSpaceOnUse"
       x1="127.82026"
       y1="26.581415"
       x2="135.86021"
       y2="16.697926" /><linearGradient
       inkscape:collect="always"
       xlink:href="#linearGradient21138"
       id="linearGradient37"
       gradientUnits="userSpaceOnUse"
       x1="127.82026"
       y1="26.581415"
       x2="135.86021"
       y2="16.697926" /><linearGradient
       inkscape:collect="always"
       xlink:href="#linearGradient21138"
       id="linearGradient38"
       gradientUnits="userSpaceOnUse"
       x1="127.82026"
       y1="26.581415"
       x2="135.86021"
       y2="16.697926" /><linearGradient
       inkscape:collect="always"
       xlink:href="#linearGradient10307"
       id="linearGradient1"
       gradientUnits="userSpaceOnUse"
       gradientTransform="matrix(1.1558955,0,0,1.1558955,-52.961276,71.124339)"
       x1="54.246784"
       y1="27.237787"
       x2="156.54396"
       y2="27.237787" /><linearGradient
       inkscape:collect="always"
       xlink:href="#linearGradient10307"
       id="linearGradient2"
       gradientUnits="userSpaceOnUse"
       gradientTransform="matrix(1.1558955,0,0,1.1558955,-52.961276,92.159968)"
       x1="54.246784"
       y1="27.237787"
       x2="156.54396"
       y2="27.237787" /><linearGradient
       inkscape:collect="always"
       xlink:href="#linearGradient3"
       id="linearGradient4"
       x1="74.083336"
       y1="135.46666"
       x2="74.083336"
       y2="0"
       gradientUnits="userSpaceOnUse" /></defs><g
     inkscape:groupmode="layer"
     id="layer2"
     inkscape:label="fondo color"
     sodipodi:insensitive="true"><rect
       style="opacity:1;fill:url(#linearGradient4);fill-opacity:1;stroke:none;stroke-width:0.666525;stroke-linecap:round;paint-order:fill markers stroke"
       id="rect2"
       width="135.46666"
       height="135.46666"
       x="0"
       y="0" /></g><g
     inkscape:label="diseño"
     inkscape:groupmode="layer"
     id="layer1"
     style="display:inline"><text
       xml:space="preserve"
       style="font-style:normal;font-variant:normal;font-weight:bold;font-stretch:normal;font-size:27.7549px;line-height:2.4;font-family:sans-serif;-inkscape-font-specification:'sans-serif, Bold';font-variant-ligatures:normal;font-variant-caps:normal;font-variant-numeric:normal;font-variant-east-asian:normal;text-align:center;text-decoration-color:#000000;letter-spacing:6.49653px;word-spacing:0px;text-anchor:middle;fill:url(#linearGradient10317);fill-opacity:1;stroke:none;stroke-width:3.98999;-inkscape-stroke:none;paint-order:stroke markers fill;stop-color:#000000"
       x="71.417213"
       y="-11.246449"
       id="text10315"><tspan
         sodipodi:role="line"
         id="tspan10323"
         x="71.417213"
         y="-11.246449"
         style="fill:url(#linearGradient10317);stroke-width:3.98999">מעשר</tspan></text><g
       id="g1"
       transform="matrix(5.2401423,0,0,5.2401423,-625.49318,-68.022558)"><circle
         style="fill:#606000;fill-opacity:1;stroke:none;stroke-width:0.5;stroke-linecap:butt;stroke-linejoin:miter;stroke-miterlimit:4;stroke-dasharray:none;stroke-dashoffset:0;stroke-opacity:1;paint-order:fill markers stroke;stop-color:#000000"
         id="circle21734"
         cx="132.35721"
         cy="21.690731"
         r="7.9239902" /><circle
         style="fill:url(#linearGradient9757);fill-opacity:1;stroke:#808000;stroke-width:0.5;stroke-linecap:butt;stroke-linejoin:miter;stroke-miterlimit:4;stroke-dasharray:none;stroke-dashoffset:0;stroke-opacity:1;paint-order:fill markers stroke;stop-color:#000000"
         id="circle9749"
         cx="132.15973"
         cy="21.833143"
         r="7.5986295" /><circle
         style="opacity:0.245374;fill:#c4b500;fill-opacity:1;stroke:none;stroke-width:0.5;stroke-linecap:butt;stroke-linejoin:miter;stroke-miterlimit:4;stroke-dasharray:none;stroke-dashoffset:0;stroke-opacity:1;paint-order:fill markers stroke;filter:url(#filter14020);stop-color:#000000"
         id="circle14004"
         cx="132.15973"
         cy="21.833143"
         r="7.5986295"
         clip-path="url(#clipPath14022)" /><circle
         style="fill:url(#linearGradient14034);fill-opacity:1;stroke:none;stroke-width:0.5;stroke-linecap:butt;stroke-linejoin:miter;stroke-miterlimit:4;stroke-dasharray:none;stroke-dashoffset:0;stroke-opacity:1;paint-order:fill markers stroke;stop-color:#000000"
         id="circle14026"
         cx="132.15973"
         cy="21.833143"
         r="7.5125518" /><path
         style="opacity:0.720147;fill:none;fill-opacity:1;stroke:none;stroke-width:0.1;stroke-linecap:butt;stroke-linejoin:miter;stroke-miterlimit:4;stroke-dasharray:none;stroke-dashoffset:0;stroke-opacity:1;paint-order:fill markers stroke;stop-color:#000000"
         id="path14399"
         sodipodi:type="arc"
         sodipodi:cx="116.31407"
         sodipodi:cy="66.437317"
         sodipodi:rx="4.9847078"
         sodipodi:ry="4.9847078"
         sodipodi:start="0"
         sodipodi:end="6.1078792"
         sodipodi:open="true"
         sodipodi:arc-type="arc"
         d="m 121.29878,66.437317 a 4.9847078,4.9847078 0 0 1 -4.76632,4.979921 4.9847078,4.9847078 0 0 1 -5.18396,-4.543556 4.9847078,4.9847078 0 0 1 4.31207,-5.37805 4.9847078,4.9847078 0 0 1 5.56181,4.072304"
         transform="rotate(-20.353842)" /><g
         id="g19951"
         style="fill:#575700;fill-opacity:1;stroke:#5c5c00;stroke-width:0.0982544;stroke-dasharray:none;stroke-opacity:1"
         transform="matrix(1.0177294,0.00866821,-0.00866821,1.0177294,-1.9753198,-1.49873)"><text
           xml:space="preserve"
           style="font-style:normal;font-variant:normal;font-weight:bold;font-stretch:normal;font-size:2.42634px;line-height:2.4;font-family:sans-serif;-inkscape-font-specification:'sans-serif, Bold';font-variant-ligatures:normal;font-variant-caps:normal;font-variant-numeric:normal;font-variant-east-asian:normal;text-align:center;text-decoration-color:#000000;letter-spacing:0px;word-spacing:0px;text-anchor:middle;opacity:1;fill:#575700;fill-opacity:1;stroke:#5c5c00;stroke-width:0.0982544;stroke-dasharray:none;stroke-opacity:1;paint-order:stroke markers fill;stop-color:#000000"
           id="text19945"><textPath
             xlink:href="#path14399"
             startOffset="50%"
             id="textPath19943"
             style="font-size:2.42634px;fill:#575700;fill-opacity:1;stroke:#5c5c00;stroke-width:0.0982544;stroke-dasharray:none;stroke-opacity:1">מעשר - maaser</textPath></text><path
           id="path19947"
           style="opacity:1;fill:#575700;fill-opacity:1;stroke:#5c5c00;stroke-width:0.0982544;stroke-linecap:round;stroke-linejoin:miter;stroke-miterlimit:4;stroke-dasharray:none;stroke-dashoffset:0;stroke-opacity:1;paint-order:fill markers stroke;stop-color:#000000;stop-opacity:1"
           d="m 131.85588,19.460717 a 0.80435175,0.80435175 0 0 0 -0.12248,0.0067 0.80435175,0.80435175 0 0 0 -0.69556,0.868164 0.80435175,0.80435175 0 0 0 0.83612,0.732772 0.80435175,0.80435175 0 0 0 0.76946,-0.803569 l -0.0124,-0.140043 a 0.80435175,0.80435175 0 0 0 -0.77514,-0.664042 z m 1.65674,0.6165 a 0.80137473,0.80137473 0 0 0 -0.12195,0.0067 0.80137473,0.80137473 0 0 0 -0.6935,0.864546 0.80137473,0.80137473 0 0 0 0.83354,0.730188 0.80137473,0.80137473 0 0 0 0.76636,-0.800467 l -0.0124,-0.139527 a 0.80137473,0.80137473 0 0 0 -0.77205,-0.661458 z m -2.89801,0.482658 a 0.75885224,0.75885224 0 0 0 -0.11576,0.0062 0.75885224,0.75885224 0 0 0 -0.65629,0.819071 0.75885224,0.75885224 0 0 0 0.7891,0.691431 0.75885224,0.75885224 0 0 0 0.72554,-0.758093 l -0.0114,-0.132292 a 0.75885224,0.75885224 0 0 0 -0.73119,-0.626317 z m 1.48776,0.627868 a 0.75885224,0.75885224 0 0 0 -0.11575,0.0062 0.75885224,0.75885224 0 0 0 -0.65629,0.818554 0.75885224,0.75885224 0 0 0 0.7891,0.691948 0.75885224,0.75885224 0 0 0 0.72553,-0.758094 l -0.0114,-0.132291 a 0.75885224,0.75885224 0 0 0 -0.73122,-0.626319 z m 1.53479,0.558106 a 0.75885224,0.75885224 0 0 0 -0.11575,0.0067 0.75885224,0.75885224 0 0 0 -0.65629,0.818554 0.75885224,0.75885224 0 0 0 0.7891,0.691431 0.75885224,0.75885224 0 0 0 0.72553,-0.758093 l -0.0119,-0.132292 a 0.75885224,0.75885224 0 0 0 -0.73071,-0.626318 z m -2.80913,0.447518 a 0.75885224,0.75885224 0 0 0 -0.11575,0.0062 0.75885224,0.75885224 0 0 0 -0.65629,0.819071 0.75885224,0.75885224 0 0 0 0.78909,0.691431 0.75885224,0.75885224 0 0 0 0.72554,-0.758093 l -0.0119,-0.132292 a 0.75885224,0.75885224 0 0 0 -0.73071,-0.626318 z m 1.52342,0.578259 a 0.75885224,0.75885224 0 0 0 -0.11575,0.0067 0.75885224,0.75885224 0 0 0 -0.65629,0.818555 0.75885224,0.75885224 0 0 0 0.7891,0.69143 0.75885224,0.75885224 0 0 0 0.72553,-0.758093 l -0.0114,-0.132292 a 0.75885224,0.75885224 0 0 0 -0.73122,-0.626318 z m -1.33635,0.987537 a 0.75885224,0.75885224 0 0 0 -0.11524,0.0062 0.75885224,0.75885224 0 0 0 -0.65681,0.818554 0.75885224,0.75885224 0 0 0 0.78962,0.691948 0.75885224,0.75885224 0 0 0 0.72554,-0.758093 l -0.0119,-0.132292 a 0.75885224,0.75885224 0 0 0 -0.73122,-0.626318 z" /><path
           id="path19949"
           style="color:#000000;fill:#575700;fill-opacity:1;stroke:#5c5c00;stroke-width:0.0982544;stroke-linecap:round;stroke-dasharray:none;stroke-opacity:1;paint-order:fill markers stroke"
           d="m 133.03478,16.927649 a 0.15000001,0.15000001 0 0 0 -0.13075,0.127641 c 0,0 -0.19191,1.368427 0.86559,2.303219 -0.1134,0.147202 -0.72274,0.938365 -0.81701,1.06195 a 0.15000001,0.15000001 0 0 0 0.0295,0.208773 0.15000001,0.15000001 0 0 0 0.20877,-0.02739 c 0.0898,-0.117724 0.69608,-0.904862 0.8139,-1.057817 0.0854,0.05995 0.17716,0.117029 0.27596,0.171049 1.01058,0.552567 1.81752,0.304504 2.24017,-0.189136 0.21133,-0.246819 0.33095,-0.548076 0.35191,-0.836124 0.021,-0.288048 -0.0598,-0.574298 -0.27543,-0.756027 -0.18855,-0.158981 -0.37338,-0.23444 -0.54519,-0.232027 -0.1718,0.0024 -0.31919,0.09073 -0.40824,0.212907 -0.17811,0.244365 -0.16948,0.617743 0.0744,0.865064 a 0.15000001,0.15000001 0 0 0 0.21084,0.0021 0.15000001,0.15000001 0 0 0 0.002,-0.212907 c -0.13474,-0.13662 -0.12926,-0.362898 -0.045,-0.478524 0.0421,-0.05781 0.0923,-0.08883 0.17002,-0.08992 0.0777,-0.0011 0.19637,0.03666 0.34778,0.164331 0.12444,0.104908 0.18542,0.28519 0.1695,0.503845 -0.0159,0.218656 -0.11214,0.464612 -0.28112,0.661975 -0.33797,0.394728 -0.94616,0.62559 -1.86914,0.120923 -1.46851,-0.802941 -1.22266,-2.353344 -1.22266,-2.353344 a 0.15000001,0.15000001 0 0 0 -0.12661,-0.170016 h -5.2e-4 a 0.15000001,0.15000001 0 0 0 -0.0387,-5.17e-4 z" /></g><g
         id="g19937"
         style="fill:url(#linearGradient21140);fill-opacity:1"><text
           xml:space="preserve"
           style="font-style:normal;font-variant:normal;font-weight:bold;font-stretch:normal;font-size:2.46944px;line-height:2.4;font-family:sans-serif;-inkscape-font-specification:'sans-serif, Bold';font-variant-ligatures:normal;font-variant-caps:normal;font-variant-numeric:normal;font-variant-east-asian:normal;text-align:center;text-decoration-color:#000000;letter-spacing:0px;word-spacing:0px;text-anchor:middle;opacity:1;fill:url(#linearGradient36);fill-opacity:1;stroke:none;stroke-width:0.2;stroke-dasharray:none;stroke-opacity:1;paint-order:stroke markers fill;stop-color:#000000"
           id="text14340"><textPath
             xlink:href="#path14399"
             startOffset="50%"
             id="textPath14401"
             style="font-size:2.46944px;fill:url(#linearGradient36);fill-opacity:1">מעשר - maaser</textPath></text><path
           id="path14532"
           style="opacity:1;fill:url(#linearGradient37);fill-opacity:1;stroke:none;stroke-width:0.3;stroke-linecap:round;stroke-linejoin:miter;stroke-miterlimit:4;stroke-dasharray:none;stroke-dashoffset:0;stroke-opacity:1;paint-order:fill markers stroke;stop-color:#000000;stop-opacity:1"
           d="m 131.85588,19.460717 a 0.80435175,0.80435175 0 0 0 -0.12248,0.0067 0.80435175,0.80435175 0 0 0 -0.69556,0.868164 0.80435175,0.80435175 0 0 0 0.83612,0.732772 0.80435175,0.80435175 0 0 0 0.76946,-0.803569 l -0.0124,-0.140043 a 0.80435175,0.80435175 0 0 0 -0.77514,-0.664042 z m 1.65674,0.6165 a 0.80137473,0.80137473 0 0 0 -0.12195,0.0067 0.80137473,0.80137473 0 0 0 -0.6935,0.864546 0.80137473,0.80137473 0 0 0 0.83354,0.730188 0.80137473,0.80137473 0 0 0 0.76636,-0.800467 l -0.0124,-0.139527 a 0.80137473,0.80137473 0 0 0 -0.77205,-0.661458 z m -2.89801,0.482658 a 0.75885224,0.75885224 0 0 0 -0.11576,0.0062 0.75885224,0.75885224 0 0 0 -0.65629,0.819071 0.75885224,0.75885224 0 0 0 0.7891,0.691431 0.75885224,0.75885224 0 0 0 0.72554,-0.758093 l -0.0114,-0.132292 a 0.75885224,0.75885224 0 0 0 -0.73119,-0.626317 z m 1.48776,0.627868 a 0.75885224,0.75885224 0 0 0 -0.11575,0.0062 0.75885224,0.75885224 0 0 0 -0.65629,0.818554 0.75885224,0.75885224 0 0 0 0.7891,0.691948 0.75885224,0.75885224 0 0 0 0.72553,-0.758094 l -0.0114,-0.132291 a 0.75885224,0.75885224 0 0 0 -0.73122,-0.626319 z m 1.53479,0.558106 a 0.75885224,0.75885224 0 0 0 -0.11575,0.0067 0.75885224,0.75885224 0 0 0 -0.65629,0.818554 0.75885224,0.75885224 0 0 0 0.7891,0.691431 0.75885224,0.75885224 0 0 0 0.72553,-0.758093 l -0.0119,-0.132292 a 0.75885224,0.75885224 0 0 0 -0.73071,-0.626318 z m -2.80913,0.447518 a 0.75885224,0.75885224 0 0 0 -0.11575,0.0062 0.75885224,0.75885224 0 0 0 -0.65629,0.819071 0.75885224,0.75885224 0 0 0 0.78909,0.691431 0.75885224,0.75885224 0 0 0 0.72554,-0.758093 l -0.0119,-0.132292 a 0.75885224,0.75885224 0 0 0 -0.73071,-0.626318 z m 1.52342,0.578259 a 0.75885224,0.75885224 0 0 0 -0.11575,0.0067 0.75885224,0.75885224 0 0 0 -0.65629,0.818555 0.75885224,0.75885224 0 0 0 0.7891,0.69143 0.75885224,0.75885224 0 0 0 0.72553,-0.758093 l -0.0114,-0.132292 a 0.75885224,0.75885224 0 0 0 -0.73122,-0.626318 z m -1.33635,0.987537 a 0.75885224,0.75885224 0 0 0 -0.11524,0.0062 0.75885224,0.75885224 0 0 0 -0.65681,0.818554 0.75885224,0.75885224 0 0 0 0.78962,0.691948 0.75885224,0.75885224 0 0 0 0.72554,-0.758093 l -0.0119,-0.132292 a 0.75885224,0.75885224 0 0 0 -0.73122,-0.626318 z" /><path
           id="path14530"
           style="color:#000000;fill:url(#linearGradient38);fill-opacity:1;stroke-linecap:round;-inkscape-stroke:none;paint-order:fill markers stroke"
           d="m 133.03478,16.927649 a 0.15000001,0.15000001 0 0 0 -0.13075,0.127641 c 0,0 -0.19191,1.368427 0.86559,2.303219 -0.1134,0.147202 -0.72274,0.938365 -0.81701,1.06195 a 0.15000001,0.15000001 0 0 0 0.0295,0.208773 0.15000001,0.15000001 0 0 0 0.20877,-0.02739 c 0.0898,-0.117724 0.69608,-0.904862 0.8139,-1.057817 0.0854,0.05995 0.17716,0.117029 0.27596,0.171049 1.01058,0.552567 1.81752,0.304504 2.24017,-0.189136 0.21133,-0.246819 0.33095,-0.548076 0.35191,-0.836124 0.021,-0.288048 -0.0598,-0.574298 -0.27543,-0.756027 -0.18855,-0.158981 -0.37338,-0.23444 -0.54519,-0.232027 -0.1718,0.0024 -0.31919,0.09073 -0.40824,0.212907 -0.17811,0.244365 -0.16948,0.617743 0.0744,0.865064 a 0.15000001,0.15000001 0 0 0 0.21084,0.0021 0.15000001,0.15000001 0 0 0 0.002,-0.212907 c -0.13474,-0.13662 -0.12926,-0.362898 -0.045,-0.478524 0.0421,-0.05781 0.0923,-0.08883 0.17002,-0.08992 0.0777,-0.0011 0.19637,0.03666 0.34778,0.164331 0.12444,0.104908 0.18542,0.28519 0.1695,0.503845 -0.0159,0.218656 -0.11214,0.464612 -0.28112,0.661975 -0.33797,0.394728 -0.94616,0.62559 -1.86914,0.120923 -1.46851,-0.802941 -1.22266,-2.353344 -1.22266,-2.353344 a 0.15000001,0.15000001 0 0 0 -0.12661,-0.170016 h -5.2e-4 a 0.15000001,0.15000001 0 0 0 -0.0387,-5.17e-4 z" /></g></g><text
       xml:space="preserve"
       style="font-style:normal;font-variant:normal;font-weight:bold;font-stretch:normal;font-size:24.0481px;line-height:2.4;font-family:sans-serif;-inkscape-font-specification:'sans-serif, Bold';font-variant-ligatures:normal;font-variant-caps:normal;font-variant-numeric:normal;font-variant-east-asian:normal;text-align:center;text-decoration-color:#000000;letter-spacing:5.62889px;word-spacing:0px;text-anchor:middle;fill:url(#linearGradient1);fill-opacity:1;stroke:none;stroke-width:3.45711;-inkscape-stroke:none;paint-order:stroke markers fill;stop-color:#000000"
       x="67.806633"
       y="106.88234"
       id="text1"><tspan
         sodipodi:role="line"
         id="tspan1"
         x="70.621078"
         y="106.88234"
         style="fill:url(#linearGradient1);stroke-width:3.45711">DIEZMO</tspan></text><text
       xml:space="preserve"
       style="font-style:normal;font-variant:normal;font-weight:bold;font-stretch:normal;font-size:24.0481px;line-height:2.4;font-family:sans-serif;-inkscape-font-specification:'sans-serif, Bold';font-variant-ligatures:normal;font-variant-caps:normal;font-variant-numeric:normal;font-variant-east-asian:normal;text-align:center;text-decoration-color:#000000;letter-spacing:0.504384px;word-spacing:0px;text-anchor:middle;fill:url(#linearGradient2);fill-opacity:1;stroke:none;stroke-width:3.45711;-inkscape-stroke:none;paint-order:stroke markers fill;stop-color:#000000"
       x="67.806633"
       y="127.918"
       id="text2"><tspan
         sodipodi:role="line"
         id="tspan2"
         x="68.058823"
         y="127.918"
         style="letter-spacing:0.504384px;fill:url(#linearGradient2);stroke-width:3.45711">MANAGER</tspan></text></g></svg>
